<mxfile host="app.diagrams.net" modified="2023-07-11T13:46:34.856Z" agent="Mozilla/5.0 (Windows NT 10.0; Win64; x64) AppleWebKit/537.36 (KHTML, like Gecko) Chrome/114.0.0.0 Safari/537.36" etag="uymHDT3A6tD5NFzvfdN-" version="21.6.1" type="github">
  <diagram name="Page-1" id="yOaoBZyh_T1SNgc7dEob">
    <mxGraphModel dx="1434" dy="756" grid="1" gridSize="10" guides="1" tooltips="1" connect="1" arrows="1" fold="1" page="1" pageScale="1" pageWidth="827" pageHeight="1169" math="0" shadow="0">
      <root>
        <mxCell id="0" />
        <mxCell id="1" parent="0" />
        <mxCell id="-gmPO7nOXunfvhObOr1Y-13" value="" style="whiteSpace=wrap;html=1;aspect=fixed;" vertex="1" parent="1">
          <mxGeometry x="205" y="70" width="200" height="200" as="geometry" />
        </mxCell>
        <mxCell id="-gmPO7nOXunfvhObOr1Y-14" value="" style="image;sketch=0;aspect=fixed;html=1;points=[];align=center;fontSize=12;image=img/lib/mscae/Docker.svg;" vertex="1" parent="1">
          <mxGeometry x="355" y="70" width="50" height="41" as="geometry" />
        </mxCell>
        <mxCell id="-gmPO7nOXunfvhObOr1Y-11" value="" style="whiteSpace=wrap;html=1;aspect=fixed;" vertex="1" parent="1">
          <mxGeometry x="205" y="327.25" width="200" height="200" as="geometry" />
        </mxCell>
        <mxCell id="-gmPO7nOXunfvhObOr1Y-2" value="" style="shape=image;html=1;verticalAlign=top;verticalLabelPosition=bottom;labelBackgroundColor=#ffffff;imageAspect=0;aspect=fixed;image=https://cdn4.iconfinder.com/data/icons/scripting-and-programming-languages/512/Python_logo-128.png" vertex="1" parent="1">
          <mxGeometry x="100" y="220" width="74.5" height="74.5" as="geometry" />
        </mxCell>
        <mxCell id="-gmPO7nOXunfvhObOr1Y-3" value="" style="shape=image;html=1;verticalAlign=top;verticalLabelPosition=bottom;labelBackgroundColor=#ffffff;imageAspect=0;aspect=fixed;image=https://cdn2.iconfinder.com/data/icons/boxicons-logos/24/bxl-django-128.png" vertex="1" parent="1">
          <mxGeometry x="88" y="120.75" width="86.5" height="86.5" as="geometry" />
        </mxCell>
        <mxCell id="-gmPO7nOXunfvhObOr1Y-5" value="" style="shape=cylinder3;whiteSpace=wrap;html=1;boundedLbl=1;backgroundOutline=1;size=15;" vertex="1" parent="1">
          <mxGeometry x="260" y="344.5" width="90" height="165.5" as="geometry" />
        </mxCell>
        <mxCell id="-gmPO7nOXunfvhObOr1Y-1" value="" style="outlineConnect=0;dashed=0;verticalLabelPosition=bottom;verticalAlign=top;align=center;html=1;shape=mxgraph.aws3.mysql_db_instance;fillColor=#2E73B8;gradientColor=none;" vertex="1" parent="1">
          <mxGeometry x="275" y="410" width="60" height="64.5" as="geometry" />
        </mxCell>
        <mxCell id="-gmPO7nOXunfvhObOr1Y-9" value="" style="edgeStyle=orthogonalEdgeStyle;rounded=0;orthogonalLoop=1;jettySize=auto;html=1;entryX=0;entryY=0.5;entryDx=0;entryDy=0;" edge="1" parent="1" source="-gmPO7nOXunfvhObOr1Y-6" target="-gmPO7nOXunfvhObOr1Y-15">
          <mxGeometry relative="1" as="geometry" />
        </mxCell>
        <mxCell id="-gmPO7nOXunfvhObOr1Y-10" value="R/W" style="edgeLabel;html=1;align=center;verticalAlign=middle;resizable=0;points=[];" vertex="1" connectable="0" parent="-gmPO7nOXunfvhObOr1Y-9">
          <mxGeometry x="0.1958" y="-1" relative="1" as="geometry">
            <mxPoint as="offset" />
          </mxGeometry>
        </mxCell>
        <mxCell id="-gmPO7nOXunfvhObOr1Y-18" value="" style="edgeStyle=orthogonalEdgeStyle;rounded=0;orthogonalLoop=1;jettySize=auto;html=1;" edge="1" parent="1" source="-gmPO7nOXunfvhObOr1Y-6" target="-gmPO7nOXunfvhObOr1Y-5">
          <mxGeometry relative="1" as="geometry" />
        </mxCell>
        <mxCell id="-gmPO7nOXunfvhObOr1Y-6" value="" style="shape=image;html=1;verticalAlign=top;verticalLabelPosition=bottom;labelBackgroundColor=#ffffff;imageAspect=0;aspect=fixed;image=https://cdn1.iconfinder.com/data/icons/seo-and-web-development-6/32/development_computer_website_check_result-128.png" vertex="1" parent="1">
          <mxGeometry x="241" y="120.75" width="128" height="128" as="geometry" />
        </mxCell>
        <mxCell id="-gmPO7nOXunfvhObOr1Y-12" value="" style="image;sketch=0;aspect=fixed;html=1;points=[];align=center;fontSize=12;image=img/lib/mscae/Docker.svg;" vertex="1" parent="1">
          <mxGeometry x="355" y="327.25" width="50" height="41" as="geometry" />
        </mxCell>
        <mxCell id="-gmPO7nOXunfvhObOr1Y-15" value="" style="ellipse;whiteSpace=wrap;html=1;aspect=fixed;" vertex="1" parent="1">
          <mxGeometry x="530" y="124.75" width="120" height="120" as="geometry" />
        </mxCell>
      </root>
    </mxGraphModel>
  </diagram>
</mxfile>
